<svg width="331" height="88" viewBox="0 0 331 88" fill="none" xmlns="http://www.w3.org/2000/svg">
<path d="M233.987 42.7881C231.804 42.4227 230.795 44.7755 227.153 49.9185C223.82 54.6241 217.069 62.4853 214.165 60.8854C211.26 59.2855 213.247 53.0519 215.234 48.6923C216.456 46.01 217.205 43.1119 215.729 42.8213C214.195 42.4088 211.584 45.9408 209.882 50.2313C206.521 56.7001 200.516 62.931 197.363 62.931C195.589 62.931 194.973 62.1006 194.973 60.5698C194.973 54.5854 201.182 48.4791 201.182 45.2156C201.182 44.1499 200.735 43.2974 199.861 43.2974C198.267 43.2974 196.747 45.7111 192.953 45.7111C191.79 45.6912 190.639 45.4779 189.546 45.08C190.433 41.7335 190.375 38.6665 187.702 38.6665C185.492 38.6665 183.889 40.4879 183.889 43.7154C183.889 45.3762 184.718 46.7602 185.903 47.7677C183.494 55.2193 178.251 62.6597 173.987 61.94C172.197 61.6383 170.798 58.6184 171.567 55.0642C174.67 51.7426 178.519 45.9907 176.795 43.9922C174.308 41.0996 168.173 49.6168 167.015 55.9251C164.224 60.0079 160.673 63.0278 157.965 62.1725C156.628 61.7518 156.166 60.5892 156.219 59.0723C156.39 54.1591 158.968 51.225 160.839 48.5926C162.202 46.6716 163.837 43.7375 162.246 42.9209C160.972 42.2649 158.838 43.278 157.413 45.1354L157.269 45.3264C154.735 48.1304 150.338 50.6105 145.613 52.0886C145.687 51.4861 145.725 50.8798 145.729 50.2728C145.729 44.6094 142.827 40.5377 138.425 38.6471C141.296 33.5782 144.56 28.7432 148.188 24.187C153.381 22.4403 155.263 18.6786 155.263 17.1894C155.263 16.1846 154.793 15.4788 153.792 15.4788C151.549 15.4788 147.287 19.0772 143.982 22.457C141.562 22.8167 139.117 22.987 136.67 22.9663C125.484 22.9663 118.835 17.9838 115.116 17.9838C113.408 17.9838 112.642 19.2239 112.642 20.4031C112.642 22.7614 115.232 26.4152 115.232 33.7865C115.179 36.866 114.782 39.9298 114.049 42.9209C112.8 40.6871 110.559 39.6214 107.638 39.6214C101.498 39.6214 96.1337 45.7554 93.7572 52.6311C91.1181 58.062 88.1447 63.0168 84.9143 63.0168C83.1484 63.0168 82.325 61.7186 82.325 59.3602C82.325 53.9349 86.3264 46.8349 86.3264 42.7327C86.3264 39.1952 84.3229 36.9559 79.8517 36.9559C75.0019 36.9559 68.1265 42.3147 63.379 48.839C53.1129 60.9767 38.8454 68.5528 25.6583 68.1127C15.5332 67.8774 8.11892 60.9158 8.11892 50.6742C8.00562 26.8304 30.696 3.17769 55.7713 3.17769C63.8985 3.17769 69.3397 7.40722 69.4585 16.132C69.4585 32.1699 52.0738 43.5908 40.5448 43.5908C35.2474 43.5908 32.0225 40.2692 32.0225 35.2037C32.0225 26.5952 40.379 19.5339 50.0344 15.9964C51.0928 15.7611 51.3277 14.5819 49.327 14.5819C39.3234 15.0387 26.4874 26.1384 26.4874 36.7261C26.4874 44.388 32.4232 47.7096 39.0139 47.7096C54.0828 47.7096 74.9908 32.1755 74.9908 15.4317C74.9908 7.52902 70.1383 0 57.0646 0C26.3381 0 0 28.2532 0 51.2471C0 70.8226 17.0696 73.4162 24.3706 73.4162C38.0329 73.4162 51.1951 65.7793 58.6646 57.9153C58.2219 59.3328 57.9845 60.8065 57.9599 62.2915C57.9599 66.1834 59.9634 68.777 63.6111 68.777C67.9662 68.777 73.2637 64.4146 77.033 59.3436C76.4444 62.8811 77.7377 68.1874 82.3305 68.1874C86.2877 68.1874 89.8635 64.0133 92.4612 59.8474V59.8944C92.4612 64.0797 95.1085 67.9217 99.4664 67.9217C111.708 67.9217 119.891 47.6404 119.891 31.3672C119.919 28.9229 119.713 26.4814 119.277 24.0762C124.774 25.5737 130.635 26.119 135.606 26.119C137.541 26.119 139.309 26.036 140.89 25.8921C138.403 28.9369 135.736 33.064 133.34 37.5178C133.036 37.5011 132.732 37.4818 132.423 37.4818C126.949 37.4818 122.593 41.3127 122.593 46.0903C122.593 49.0992 124.252 51.4464 126.739 53.1156C125.94 55.8836 125.473 58.3748 125.473 60.4176C125.473 65.1232 127.769 68.0822 131.829 68.0822C137.516 68.0822 142.974 61.8044 144.944 55.222C147.91 54.3818 150.733 53.0977 153.317 51.4132C152.002 53.9598 151.106 56.6448 150.996 59.3962C150.896 62.2362 152.016 66.3827 156.089 66.5238C159.278 66.6346 163.241 64.9516 166.996 60.3539C167.549 63.5095 169.359 65.2063 171.777 65.6685C178.989 67.0525 185.041 58.6461 188.153 49.1241C189.038 49.4901 189.984 49.6864 190.941 49.7026C191.946 49.7022 192.947 49.5861 193.926 49.3566C191.532 53.0381 189.487 58.026 189.485 61.7905C189.485 66.0201 191.925 67.2269 194.79 67.1716C199.745 67.0775 204.363 62.6126 208.176 57.3257C208.165 57.525 208.16 57.7243 208.16 57.9236C208.143 61.3421 208.865 65.6741 212.385 66.1308C215.323 66.5045 218.741 64.506 223.511 59.1914C224.378 58.2253 224.79 58.5935 224.119 59.8834C220.435 66.9446 214.507 77.6485 214.369 83.8683C214.322 85.9415 215.143 87.3947 216.674 87.857C217.575 88.1338 218.409 88.0037 218.608 87.511C218.807 87.0183 218.537 86.1602 218.537 84.9478C218.537 79.5612 221.963 71.2433 232.768 50.9676C234.299 48.1193 236.211 43.1617 233.987 42.7881ZM66.3192 63.3462C64.9044 63.3462 63.846 62.5351 63.846 60.6501C63.846 54.5826 74.51 39.6353 79.6389 39.89C80.7084 39.9453 81.4517 40.939 81.5014 42.0075C81.7695 47.9892 71.567 63.3462 66.3192 63.3462ZM100.544 63.9717C98.3666 63.9717 97.4049 61.7407 97.4049 59.136C97.4049 52.4734 102.409 43.6351 108.235 43.6351C109.257 43.6108 110.262 43.9004 111.115 44.465C111.968 45.0296 112.628 45.8421 113.007 46.7934C110.249 55.7064 105.336 63.9717 100.544 63.9717ZM141.017 49.9213C141.004 51.0398 140.87 52.1535 140.616 53.2429C139.404 53.4223 138.18 53.5148 136.955 53.5197C135.232 53.5327 133.517 53.2759 131.873 52.7585C133.188 48.9991 134.796 45.3489 136.681 41.8414C139.315 43.4386 141.017 46.3339 141.017 49.9213ZM126.183 46.2066C126.183 43.2171 128.62 40.3937 131.807 40.474C130.236 43.6165 128.857 46.8518 127.678 50.1621C126.706 49.0757 126.173 47.6654 126.183 46.2066ZM132.365 64.3676C130.538 64.3676 130.245 62.5988 130.245 60.8882C130.297 58.9436 130.6 57.014 131.146 55.1473C133.432 55.8321 135.805 56.1772 138.19 56.1715C138.718 56.1715 139.24 56.1521 139.757 56.1189C138.143 60.4453 135.214 64.3676 132.365 64.3676Z" fill="url(#paint0_linear_14614_50762)"/>
<path d="M330.361 40.2377C329.512 38.6051 324.887 32.1754 321.172 27.0097C319.117 24.1508 317.341 21.6818 316.811 20.8667C314.495 17.2983 307.793 12.1584 299.017 18.2521C295.348 20.8009 293.001 25.0434 292.76 29.5773C292.584 32.7698 293.503 35.5018 295.283 37.0734L295.372 37.1533C294.468 38.8729 294.209 41.1093 294.147 43.7849C293.966 51.0368 294.448 77.5069 294.448 82.9452C294.442 83.0799 294.464 83.2144 294.513 83.3408C294.561 83.4672 294.635 83.5829 294.729 83.6811C294.824 83.7794 294.938 83.8582 295.065 83.9129C295.191 83.9677 295.328 83.9973 295.466 84C296.704 84 298.134 82.8137 298.134 78.4654C298.134 78.4654 298.279 51.2975 298.479 47.2758C298.564 45.5374 298.479 43.5171 299.775 42.1523C301.64 40.1685 304.212 38.9506 306.966 38.746C310.452 38.4665 312.495 35.7532 313.296 34.4189C313.395 34.242 313.554 34.1046 313.746 34.0307C313.939 33.9569 314.152 33.9512 314.348 34.0148C314.685 34.1299 315.023 34.3883 314.63 34.985C313.889 36.0494 313.026 37.0282 312.058 37.9027C310.531 39.1947 311.595 40.031 317.669 39.5024C323.744 38.9739 325.734 38.3772 325.297 39.1242C324.861 39.8713 316.087 41.2854 310.514 40.6888C306.095 40.2189 303.261 41.3606 302.329 42.8218C302.916 43.2587 303.294 43.5265 303.372 43.5806C308.114 47.3721 313.909 51.7485 316.762 53.447C317.713 53.9859 318.798 54.259 319.898 54.2363C322.345 54.2363 325.599 52.6365 327.676 50.5928C330.67 47.654 331.84 43.1013 330.361 40.2377ZM313.684 33.6883C308.949 33.0446 304.074 32.6406 300.585 33.4722C298.569 33.942 297.165 34.7783 296.192 35.9223C294.788 34.6702 294.041 32.3352 294.188 29.6642C294.415 25.5837 296.518 21.7828 299.816 19.4924C302.568 17.5825 305 16.8919 307.082 16.8919C310.35 16.8919 312.755 18.5997 314.164 19.9834C315.462 21.313 316.265 23.5235 316.323 25.9502C316.398 28.7504 315.464 31.4878 313.684 33.6883ZM315.339 33.9232C316.986 31.5692 317.831 28.7697 317.751 25.922C317.751 25.4827 317.706 25.0505 317.653 24.6276C318.345 25.5955 319.153 26.716 320.009 27.9164C321.667 30.221 323.628 32.9295 325.29 35.3045C322.752 35.1142 319.126 34.4729 315.339 33.9162V33.9232Z" fill="white"/>
<path d="M284.299 69.4219C284.299 73.692 285.664 74.8569 286.844 74.8569C286.978 74.8597 287.11 74.8342 287.234 74.7823C287.357 74.7303 287.468 74.6531 287.559 74.5554C287.651 74.4578 287.721 74.342 287.765 74.2155C287.809 74.089 287.826 73.9547 287.815 73.8212C287.815 68.4899 288.121 27.4228 288.121 27.4159C288.104 25.675 288.637 23.9734 289.644 22.5553C290.206 21.8687 290.71 21.1364 291.151 20.366C291.664 19.5633 291.657 18.7097 291.439 17.4686C290.847 14.1375 287.937 10.6518 283.782 7.81199C276.82 3.0552 271.843 3.07134 269.517 6.09105C266.756 9.66903 252.993 32.8348 252.404 33.8198C250.018 37.8084 250.197 42.6044 256.718 47.3474C262.221 51.3544 266.53 49.8965 269.326 47.0175C270.099 46.2216 276.297 38.8673 278.955 35.7137C279.839 34.6612 280.452 33.4073 280.74 32.0619C281.226 29.7989 281.364 27.7204 281.55 25.372C281.674 23.508 281.527 21.8771 279.939 20.8367C278.352 19.7962 276.258 19.4018 274.503 18.6751C271.785 17.554 268.866 15.7823 267.734 12.7603C267.687 12.6351 267.648 12.5073 267.616 12.3773C267.534 11.9898 267.98 11.7821 268.355 12.3519C268.956 13.2747 269.816 13.9967 270.656 14.6588C271.601 15.4155 272.591 16.2506 273.739 16.6404C273.919 16.711 274.113 16.7379 274.305 16.7189C274.62 16.6658 274.857 16.3798 274.671 16.066C274.355 15.5285 273.707 15.0948 273.29 14.6381C272.79 14.0996 272.337 13.5192 271.935 12.9033C271.118 11.6253 270.522 9.99199 270.785 8.39102C271.245 5.59738 273.789 5.02527 276.033 5.49588C278.619 6.04261 280.998 7.5121 283.165 8.99311C287.498 11.9552 289.863 15.6831 290.284 18.0546C290.41 18.7582 290.367 19.3326 290.166 19.734C290.054 18.1514 289.258 16.652 287.228 14.9495C282.355 10.8686 278.672 11.0278 274.533 10.0335C273.69 9.84894 272.902 9.46891 272.232 8.92391C272.087 8.79472 271.901 8.94467 271.917 9.1546C272.11 11.5814 274.026 14.6588 279.408 17.9392L279.433 17.9554C280.096 18.3598 280.815 18.7643 281.591 19.1688C282.972 19.8862 284.019 20.9612 284.03 23.365L284.299 69.4219Z" fill="white"/>
<defs>
<linearGradient id="paint0_linear_14614_50762" x1="-3.3769" y1="43.9949" x2="238.422" y2="43.9949" gradientUnits="userSpaceOnUse">
<stop offset="0.02" stop-color="#E7CB7A"/>
<stop offset="0.42" stop-color="#FBECB3"/>
<stop offset="0.71" stop-color="#C4A557"/>
<stop offset="1" stop-color="#FBECB3"/>
</linearGradient>
</defs>
</svg>
